<svg xmlns="http://www.w3.org/2000/svg" xmlns:xlink="http://www.w3.org/1999/xlink" width="1080" zoomAndPan="magnify" viewBox="0 0 810 809.999993" height="1080" preserveAspectRatio="xMidYMid meet" version="1.0"><defs><clipPath id="3d31838563"><path d="M 94.710938 76.535156 L 747.210938 76.535156 L 747.210938 729.035156 L 94.710938 729.035156 Z M 94.710938 76.535156 " clip-rule="nonzero"/></clipPath><clipPath id="e66bb76043"><path d="M 747.210938 402.785156 C 747.210938 408.125 747.082031 413.460938 746.820312 418.792969 C 746.558594 424.125 746.164062 429.449219 745.640625 434.761719 C 745.117188 440.078125 744.464844 445.375 743.679688 450.65625 C 742.898438 455.9375 741.984375 461.195312 740.945312 466.433594 C 739.902344 471.671875 738.734375 476.878906 737.433594 482.058594 C 736.136719 487.238281 734.714844 492.382812 733.164062 497.492188 C 731.613281 502.601562 729.941406 507.667969 728.140625 512.695312 C 726.34375 517.722656 724.421875 522.703125 722.378906 527.636719 C 720.335938 532.570312 718.171875 537.449219 715.890625 542.273438 C 713.605469 547.101562 711.207031 551.871094 708.6875 556.578125 C 706.171875 561.289062 703.542969 565.933594 700.796875 570.511719 C 698.050781 575.089844 695.195312 579.601562 692.230469 584.039062 C 689.261719 588.480469 686.191406 592.84375 683.007812 597.132812 C 679.828125 601.421875 676.542969 605.628906 673.15625 609.757812 C 669.769531 613.882812 666.285156 617.925781 662.699219 621.882812 C 659.113281 625.835938 655.429688 629.703125 651.65625 633.480469 C 647.878906 637.253906 644.015625 640.933594 640.058594 644.519531 C 636.101562 648.105469 632.0625 651.59375 627.933594 654.980469 C 623.804688 658.367188 619.597656 661.652344 615.308594 664.832031 C 611.019531 668.011719 606.65625 671.085938 602.21875 674.050781 C 597.777344 677.019531 593.269531 679.875 588.6875 682.621094 C 584.109375 685.363281 579.464844 687.996094 574.753906 690.511719 C 570.046875 693.027344 565.277344 695.429688 560.453125 697.710938 C 555.625 699.996094 550.746094 702.15625 545.8125 704.199219 C 540.878906 706.246094 535.898438 708.164062 530.871094 709.964844 C 525.84375 711.761719 520.777344 713.4375 515.667969 714.988281 C 510.558594 716.535156 505.414062 717.960938 500.234375 719.257812 C 495.054688 720.554688 489.847656 721.726562 484.609375 722.765625 C 479.375 723.808594 474.113281 724.722656 468.832031 725.503906 C 463.550781 726.289062 458.253906 726.941406 452.941406 727.464844 C 447.628906 727.988281 442.304688 728.378906 436.972656 728.640625 C 431.636719 728.90625 426.300781 729.035156 420.960938 729.035156 C 415.625 729.035156 410.289062 728.90625 404.953125 728.640625 C 399.621094 728.378906 394.296875 727.988281 388.984375 727.464844 C 383.671875 726.941406 378.375 726.289062 373.089844 725.503906 C 367.808594 724.722656 362.550781 723.808594 357.3125 722.765625 C 352.078125 721.726562 346.871094 720.554688 341.691406 719.257812 C 336.511719 717.960938 331.367188 716.535156 326.257812 714.988281 C 321.148438 713.4375 316.078125 711.761719 311.050781 709.964844 C 306.023438 708.164062 301.046875 706.246094 296.113281 704.199219 C 291.179688 702.15625 286.300781 699.996094 281.472656 697.710938 C 276.644531 695.429688 271.878906 693.027344 267.167969 690.511719 C 262.460938 687.996094 257.816406 685.363281 253.238281 682.621094 C 248.65625 679.875 244.148438 677.019531 239.707031 674.050781 C 235.269531 671.085938 230.902344 668.011719 226.617188 664.832031 C 222.328125 661.652344 218.117188 658.367188 213.992188 654.980469 C 209.863281 651.59375 205.824219 648.105469 201.867188 644.519531 C 197.910156 640.933594 194.042969 637.253906 190.269531 633.480469 C 186.492188 629.703125 182.8125 625.835938 179.226562 621.882812 C 175.640625 617.925781 172.15625 613.882812 168.769531 609.757812 C 165.378906 605.628906 162.097656 601.421875 158.917969 597.132812 C 155.734375 592.84375 152.660156 588.480469 149.695312 584.039062 C 146.730469 579.601562 143.875 575.089844 141.128906 570.511719 C 138.382812 565.933594 135.753906 561.289062 133.234375 556.578125 C 130.71875 551.871094 128.320312 547.101562 126.035156 542.273438 C 123.753906 537.449219 121.589844 532.570312 119.546875 527.636719 C 117.503906 522.703125 115.582031 517.722656 113.785156 512.695312 C 111.984375 507.667969 110.3125 502.601562 108.761719 497.492188 C 107.210938 492.382812 105.789062 487.238281 104.488281 482.058594 C 103.191406 476.878906 102.023438 471.671875 100.980469 466.433594 C 99.941406 461.195312 99.027344 455.9375 98.242188 450.65625 C 97.460938 445.375 96.808594 440.078125 96.285156 434.761719 C 95.761719 429.449219 95.367188 424.125 95.105469 418.792969 C 94.84375 413.460938 94.710938 408.125 94.710938 402.785156 C 94.710938 397.445312 94.84375 392.109375 95.105469 386.777344 C 95.367188 381.445312 95.761719 376.121094 96.285156 370.808594 C 96.808594 365.492188 97.460938 360.195312 98.242188 354.914062 C 99.027344 349.632812 99.941406 344.375 100.980469 339.136719 C 102.023438 333.902344 103.191406 328.691406 104.488281 323.511719 C 105.789062 318.332031 107.210938 313.1875 108.761719 308.078125 C 110.3125 302.96875 111.984375 297.902344 113.785156 292.875 C 115.582031 287.847656 117.503906 282.867188 119.546875 277.933594 C 121.589844 273.003906 123.753906 268.121094 126.035156 263.296875 C 128.320312 258.46875 130.71875 253.699219 133.234375 248.992188 C 135.753906 244.285156 138.382812 239.640625 141.128906 235.058594 C 143.875 230.480469 146.730469 225.96875 149.695312 221.53125 C 152.660156 217.089844 155.734375 212.726562 158.917969 208.4375 C 162.097656 204.148438 165.378906 199.941406 168.769531 195.816406 C 172.15625 191.6875 175.640625 187.644531 179.226562 183.6875 C 182.8125 179.734375 186.492188 175.867188 190.269531 172.09375 C 194.042969 168.316406 197.910156 164.636719 201.867188 161.050781 C 205.824219 157.464844 209.863281 153.976562 213.992188 150.589844 C 218.117188 147.203125 222.328125 143.917969 226.617188 140.738281 C 230.902344 137.558594 235.269531 134.484375 239.707031 131.519531 C 244.148438 128.550781 248.65625 125.695312 253.238281 122.953125 C 257.816406 120.207031 262.460938 117.574219 267.167969 115.058594 C 271.878906 112.542969 276.644531 110.140625 281.472656 107.859375 C 286.300781 105.574219 291.179688 103.414062 296.113281 101.371094 C 301.046875 99.328125 306.023438 97.40625 311.050781 95.605469 C 316.078125 93.808594 321.148438 92.132812 326.257812 90.582031 C 331.367188 89.035156 336.511719 87.609375 341.691406 86.3125 C 346.871094 85.015625 352.078125 83.847656 357.3125 82.804688 C 362.550781 81.761719 367.808594 80.851562 373.089844 80.066406 C 378.375 79.28125 383.671875 78.628906 388.984375 78.105469 C 394.296875 77.582031 399.621094 77.191406 404.953125 76.929688 C 410.289062 76.667969 415.625 76.535156 420.960938 76.535156 C 426.300781 76.535156 431.636719 76.667969 436.972656 76.929688 C 442.304688 77.191406 447.628906 77.582031 452.941406 78.105469 C 458.253906 78.628906 463.550781 79.28125 468.832031 80.066406 C 474.113281 80.851562 479.375 81.761719 484.609375 82.804688 C 489.847656 83.847656 495.054688 85.015625 500.234375 86.3125 C 505.414062 87.609375 510.558594 89.035156 515.667969 90.582031 C 520.777344 92.132812 525.84375 93.808594 530.871094 95.605469 C 535.898438 97.40625 540.878906 99.328125 545.8125 101.371094 C 550.746094 103.414062 555.625 105.574219 560.453125 107.859375 C 565.277344 110.140625 570.046875 112.542969 574.753906 115.058594 C 579.464844 117.574219 584.109375 120.207031 588.6875 122.953125 C 593.269531 125.695312 597.777344 128.550781 602.21875 131.519531 C 606.65625 134.484375 611.019531 137.558594 615.308594 140.738281 C 619.597656 143.917969 623.804688 147.203125 627.933594 150.589844 C 632.0625 153.976562 636.101562 157.464844 640.058594 161.050781 C 644.015625 164.636719 647.878906 168.316406 651.65625 172.09375 C 655.429688 175.867188 659.113281 179.734375 662.699219 183.6875 C 666.285156 187.644531 669.769531 191.6875 673.15625 195.816406 C 676.542969 199.941406 679.828125 204.148438 683.007812 208.4375 C 686.191406 212.726562 689.261719 217.089844 692.230469 221.53125 C 695.195312 225.96875 698.050781 230.480469 700.796875 235.058594 C 703.542969 239.640625 706.171875 244.285156 708.6875 248.992188 C 711.207031 253.699219 713.605469 258.46875 715.890625 263.296875 C 718.171875 268.121094 720.335938 273.003906 722.378906 277.933594 C 724.421875 282.867188 726.34375 287.847656 728.140625 292.875 C 729.941406 297.902344 731.613281 302.96875 733.164062 308.078125 C 734.714844 313.1875 736.136719 318.332031 737.433594 323.511719 C 738.734375 328.691406 739.902344 333.902344 740.945312 339.136719 C 741.984375 344.375 742.898438 349.632812 743.679688 354.914062 C 744.464844 360.195312 745.117188 365.492188 745.640625 370.808594 C 746.164062 376.121094 746.558594 381.445312 746.820312 386.777344 C 747.082031 392.109375 747.210938 397.445312 747.210938 402.785156 Z M 747.210938 402.785156 " clip-rule="nonzero"/></clipPath><linearGradient x1="275" gradientTransform="matrix(1.186364, 0, 0, 1.186364, 94.712604, 76.535479)" y1="-0.0000249409" x2="275" gradientUnits="userSpaceOnUse" y2="549.999938" id="d20ed1a0b6"><stop stop-opacity="1" stop-color="rgb(36.499023%, 56.898499%, 97.599792%)" offset="0"/><stop stop-opacity="1" stop-color="rgb(36.662292%, 56.729126%, 97.608948%)" offset="0.0078125"/><stop stop-opacity="1" stop-color="rgb(36.990356%, 56.391907%, 97.627258%)" offset="0.015625"/><stop stop-opacity="1" stop-color="rgb(37.316895%, 56.054688%, 97.645569%)" offset="0.0234375"/><stop stop-opacity="1" stop-color="rgb(37.644958%, 55.717468%, 97.665405%)" offset="0.03125"/><stop stop-opacity="1" stop-color="rgb(37.971497%, 55.380249%, 97.683716%)" offset="0.0390625"/><stop stop-opacity="1" stop-color="rgb(38.299561%, 55.04303%, 97.702026%)" offset="0.046875"/><stop stop-opacity="1" stop-color="rgb(38.626099%, 54.704285%, 97.720337%)" offset="0.0546875"/><stop stop-opacity="1" stop-color="rgb(38.954163%, 54.367065%, 97.740173%)" offset="0.0625"/><stop stop-opacity="1" stop-color="rgb(39.280701%, 54.029846%, 97.758484%)" offset="0.0703125"/><stop stop-opacity="1" stop-color="rgb(39.608765%, 53.692627%, 97.776794%)" offset="0.078125"/><stop stop-opacity="1" stop-color="rgb(39.935303%, 53.355408%, 97.796631%)" offset="0.0859375"/><stop stop-opacity="1" stop-color="rgb(40.263367%, 53.016663%, 97.814941%)" offset="0.09375"/><stop stop-opacity="1" stop-color="rgb(40.591431%, 52.679443%, 97.833252%)" offset="0.101562"/><stop stop-opacity="1" stop-color="rgb(40.917969%, 52.342224%, 97.851562%)" offset="0.109375"/><stop stop-opacity="1" stop-color="rgb(41.246033%, 52.005005%, 97.871399%)" offset="0.117188"/><stop stop-opacity="1" stop-color="rgb(41.572571%, 51.667786%, 97.889709%)" offset="0.125"/><stop stop-opacity="1" stop-color="rgb(41.900635%, 51.330566%, 97.90802%)" offset="0.132812"/><stop stop-opacity="1" stop-color="rgb(42.227173%, 50.991821%, 97.927856%)" offset="0.140625"/><stop stop-opacity="1" stop-color="rgb(42.555237%, 50.654602%, 97.946167%)" offset="0.148438"/><stop stop-opacity="1" stop-color="rgb(42.881775%, 50.317383%, 97.964478%)" offset="0.15625"/><stop stop-opacity="1" stop-color="rgb(43.209839%, 49.980164%, 97.982788%)" offset="0.164063"/><stop stop-opacity="1" stop-color="rgb(43.536377%, 49.642944%, 98.002625%)" offset="0.171875"/><stop stop-opacity="1" stop-color="rgb(43.864441%, 49.304199%, 98.020935%)" offset="0.179688"/><stop stop-opacity="1" stop-color="rgb(44.190979%, 48.96698%, 98.039246%)" offset="0.1875"/><stop stop-opacity="1" stop-color="rgb(44.519043%, 48.629761%, 98.059082%)" offset="0.195313"/><stop stop-opacity="1" stop-color="rgb(44.845581%, 48.292542%, 98.077393%)" offset="0.203125"/><stop stop-opacity="1" stop-color="rgb(45.173645%, 47.955322%, 98.095703%)" offset="0.210938"/><stop stop-opacity="1" stop-color="rgb(45.500183%, 47.616577%, 98.114014%)" offset="0.21875"/><stop stop-opacity="1" stop-color="rgb(45.828247%, 47.279358%, 98.13385%)" offset="0.226563"/><stop stop-opacity="1" stop-color="rgb(46.156311%, 46.942139%, 98.152161%)" offset="0.234375"/><stop stop-opacity="1" stop-color="rgb(46.482849%, 46.604919%, 98.170471%)" offset="0.242188"/><stop stop-opacity="1" stop-color="rgb(46.810913%, 46.2677%, 98.190308%)" offset="0.25"/><stop stop-opacity="1" stop-color="rgb(47.137451%, 45.930481%, 98.208618%)" offset="0.257813"/><stop stop-opacity="1" stop-color="rgb(47.465515%, 45.591736%, 98.226929%)" offset="0.265625"/><stop stop-opacity="1" stop-color="rgb(47.792053%, 45.254517%, 98.245239%)" offset="0.273438"/><stop stop-opacity="1" stop-color="rgb(48.120117%, 44.917297%, 98.265076%)" offset="0.28125"/><stop stop-opacity="1" stop-color="rgb(48.446655%, 44.580078%, 98.283386%)" offset="0.289063"/><stop stop-opacity="1" stop-color="rgb(48.774719%, 44.242859%, 98.301697%)" offset="0.296875"/><stop stop-opacity="1" stop-color="rgb(49.101257%, 43.904114%, 98.321533%)" offset="0.304688"/><stop stop-opacity="1" stop-color="rgb(49.429321%, 43.566895%, 98.339844%)" offset="0.3125"/><stop stop-opacity="1" stop-color="rgb(49.755859%, 43.229675%, 98.358154%)" offset="0.320313"/><stop stop-opacity="1" stop-color="rgb(50.083923%, 42.892456%, 98.376465%)" offset="0.328125"/><stop stop-opacity="1" stop-color="rgb(50.410461%, 42.555237%, 98.396301%)" offset="0.335938"/><stop stop-opacity="1" stop-color="rgb(50.738525%, 42.216492%, 98.414612%)" offset="0.34375"/><stop stop-opacity="1" stop-color="rgb(51.065063%, 41.879272%, 98.432922%)" offset="0.351562"/><stop stop-opacity="1" stop-color="rgb(51.393127%, 41.542053%, 98.452759%)" offset="0.359375"/><stop stop-opacity="1" stop-color="rgb(51.721191%, 41.204834%, 98.471069%)" offset="0.367188"/><stop stop-opacity="1" stop-color="rgb(52.047729%, 40.867615%, 98.48938%)" offset="0.375"/><stop stop-opacity="1" stop-color="rgb(52.375793%, 40.530396%, 98.50769%)" offset="0.382813"/><stop stop-opacity="1" stop-color="rgb(52.702332%, 40.19165%, 98.527527%)" offset="0.390625"/><stop stop-opacity="1" stop-color="rgb(53.030396%, 39.854431%, 98.545837%)" offset="0.398438"/><stop stop-opacity="1" stop-color="rgb(53.356934%, 39.517212%, 98.564148%)" offset="0.40625"/><stop stop-opacity="1" stop-color="rgb(53.684998%, 39.179993%, 98.583984%)" offset="0.414063"/><stop stop-opacity="1" stop-color="rgb(54.011536%, 38.842773%, 98.602295%)" offset="0.421875"/><stop stop-opacity="1" stop-color="rgb(54.3396%, 38.504028%, 98.620605%)" offset="0.429688"/><stop stop-opacity="1" stop-color="rgb(54.666138%, 38.166809%, 98.638916%)" offset="0.4375"/><stop stop-opacity="1" stop-color="rgb(54.994202%, 37.82959%, 98.658752%)" offset="0.445313"/><stop stop-opacity="1" stop-color="rgb(55.32074%, 37.492371%, 98.677063%)" offset="0.453125"/><stop stop-opacity="1" stop-color="rgb(55.648804%, 37.155151%, 98.695374%)" offset="0.460938"/><stop stop-opacity="1" stop-color="rgb(55.975342%, 36.816406%, 98.71521%)" offset="0.46875"/><stop stop-opacity="1" stop-color="rgb(56.303406%, 36.479187%, 98.733521%)" offset="0.476562"/><stop stop-opacity="1" stop-color="rgb(56.629944%, 36.141968%, 98.751831%)" offset="0.484375"/><stop stop-opacity="1" stop-color="rgb(56.958008%, 35.804749%, 98.770142%)" offset="0.492188"/><stop stop-opacity="1" stop-color="rgb(57.286072%, 35.467529%, 98.789978%)" offset="0.5"/><stop stop-opacity="1" stop-color="rgb(57.61261%, 35.13031%, 98.808289%)" offset="0.507812"/><stop stop-opacity="1" stop-color="rgb(57.940674%, 34.791565%, 98.826599%)" offset="0.515625"/><stop stop-opacity="1" stop-color="rgb(58.267212%, 34.454346%, 98.846436%)" offset="0.523438"/><stop stop-opacity="1" stop-color="rgb(58.595276%, 34.117126%, 98.864746%)" offset="0.53125"/><stop stop-opacity="1" stop-color="rgb(58.921814%, 33.779907%, 98.883057%)" offset="0.539062"/><stop stop-opacity="1" stop-color="rgb(59.249878%, 33.442688%, 98.902893%)" offset="0.546875"/><stop stop-opacity="1" stop-color="rgb(59.576416%, 33.103943%, 98.921204%)" offset="0.554688"/><stop stop-opacity="1" stop-color="rgb(59.90448%, 32.766724%, 98.939514%)" offset="0.5625"/><stop stop-opacity="1" stop-color="rgb(60.231018%, 32.429504%, 98.957825%)" offset="0.570312"/><stop stop-opacity="1" stop-color="rgb(60.559082%, 32.092285%, 98.977661%)" offset="0.578125"/><stop stop-opacity="1" stop-color="rgb(60.88562%, 31.755066%, 98.995972%)" offset="0.585938"/><stop stop-opacity="1" stop-color="rgb(61.213684%, 31.417847%, 99.014282%)" offset="0.59375"/><stop stop-opacity="1" stop-color="rgb(61.540222%, 31.079102%, 99.034119%)" offset="0.601562"/><stop stop-opacity="1" stop-color="rgb(61.868286%, 30.741882%, 99.052429%)" offset="0.609375"/><stop stop-opacity="1" stop-color="rgb(62.194824%, 30.404663%, 99.07074%)" offset="0.617188"/><stop stop-opacity="1" stop-color="rgb(62.522888%, 30.067444%, 99.08905%)" offset="0.625"/><stop stop-opacity="1" stop-color="rgb(62.850952%, 29.730225%, 99.108887%)" offset="0.632812"/><stop stop-opacity="1" stop-color="rgb(63.17749%, 29.391479%, 99.127197%)" offset="0.640625"/><stop stop-opacity="1" stop-color="rgb(63.505554%, 29.05426%, 99.145508%)" offset="0.648438"/><stop stop-opacity="1" stop-color="rgb(63.832092%, 28.717041%, 99.165344%)" offset="0.65625"/><stop stop-opacity="1" stop-color="rgb(64.160156%, 28.379822%, 99.183655%)" offset="0.664062"/><stop stop-opacity="1" stop-color="rgb(64.486694%, 28.042603%, 99.201965%)" offset="0.671875"/><stop stop-opacity="1" stop-color="rgb(64.814758%, 27.703857%, 99.220276%)" offset="0.679688"/><stop stop-opacity="1" stop-color="rgb(65.141296%, 27.366638%, 99.240112%)" offset="0.6875"/><stop stop-opacity="1" stop-color="rgb(65.46936%, 27.029419%, 99.258423%)" offset="0.695312"/><stop stop-opacity="1" stop-color="rgb(65.795898%, 26.6922%, 99.276733%)" offset="0.703125"/><stop stop-opacity="1" stop-color="rgb(66.123962%, 26.35498%, 99.29657%)" offset="0.710938"/><stop stop-opacity="1" stop-color="rgb(66.4505%, 26.017761%, 99.31488%)" offset="0.71875"/><stop stop-opacity="1" stop-color="rgb(66.778564%, 25.679016%, 99.333191%)" offset="0.726562"/><stop stop-opacity="1" stop-color="rgb(67.105103%, 25.341797%, 99.351501%)" offset="0.734375"/><stop stop-opacity="1" stop-color="rgb(67.433167%, 25.004578%, 99.371338%)" offset="0.742188"/><stop stop-opacity="1" stop-color="rgb(67.76123%, 24.667358%, 99.389648%)" offset="0.75"/><stop stop-opacity="1" stop-color="rgb(68.087769%, 24.330139%, 99.407959%)" offset="0.757812"/><stop stop-opacity="1" stop-color="rgb(68.415833%, 23.991394%, 99.427795%)" offset="0.765625"/><stop stop-opacity="1" stop-color="rgb(68.742371%, 23.654175%, 99.446106%)" offset="0.773438"/><stop stop-opacity="1" stop-color="rgb(69.070435%, 23.316956%, 99.464417%)" offset="0.78125"/><stop stop-opacity="1" stop-color="rgb(69.396973%, 22.979736%, 99.482727%)" offset="0.789062"/><stop stop-opacity="1" stop-color="rgb(69.725037%, 22.642517%, 99.502563%)" offset="0.796875"/><stop stop-opacity="1" stop-color="rgb(70.051575%, 22.303772%, 99.520874%)" offset="0.804687"/><stop stop-opacity="1" stop-color="rgb(70.379639%, 21.966553%, 99.539185%)" offset="0.8125"/><stop stop-opacity="1" stop-color="rgb(70.706177%, 21.629333%, 99.559021%)" offset="0.820312"/><stop stop-opacity="1" stop-color="rgb(71.034241%, 21.292114%, 99.577332%)" offset="0.828125"/><stop stop-opacity="1" stop-color="rgb(71.360779%, 20.954895%, 99.595642%)" offset="0.835937"/><stop stop-opacity="1" stop-color="rgb(71.688843%, 20.617676%, 99.613953%)" offset="0.84375"/><stop stop-opacity="1" stop-color="rgb(72.015381%, 20.278931%, 99.633789%)" offset="0.851562"/><stop stop-opacity="1" stop-color="rgb(72.343445%, 19.941711%, 99.6521%)" offset="0.859375"/><stop stop-opacity="1" stop-color="rgb(72.669983%, 19.604492%, 99.67041%)" offset="0.867188"/><stop stop-opacity="1" stop-color="rgb(72.998047%, 19.267273%, 99.690247%)" offset="0.875"/><stop stop-opacity="1" stop-color="rgb(73.326111%, 18.930054%, 99.708557%)" offset="0.882812"/><stop stop-opacity="1" stop-color="rgb(73.652649%, 18.591309%, 99.726868%)" offset="0.890625"/><stop stop-opacity="1" stop-color="rgb(73.980713%, 18.254089%, 99.745178%)" offset="0.898438"/><stop stop-opacity="1" stop-color="rgb(74.307251%, 17.91687%, 99.765015%)" offset="0.90625"/><stop stop-opacity="1" stop-color="rgb(74.635315%, 17.579651%, 99.783325%)" offset="0.914063"/><stop stop-opacity="1" stop-color="rgb(74.961853%, 17.242432%, 99.801636%)" offset="0.921875"/><stop stop-opacity="1" stop-color="rgb(75.289917%, 16.905212%, 99.821472%)" offset="0.929688"/><stop stop-opacity="1" stop-color="rgb(75.616455%, 16.566467%, 99.839783%)" offset="0.9375"/><stop stop-opacity="1" stop-color="rgb(75.944519%, 16.229248%, 99.858093%)" offset="0.945312"/><stop stop-opacity="1" stop-color="rgb(76.271057%, 15.892029%, 99.876404%)" offset="0.953125"/><stop stop-opacity="1" stop-color="rgb(76.599121%, 15.55481%, 99.89624%)" offset="0.960938"/><stop stop-opacity="1" stop-color="rgb(76.925659%, 15.21759%, 99.914551%)" offset="0.96875"/><stop stop-opacity="1" stop-color="rgb(77.253723%, 14.878845%, 99.932861%)" offset="0.976562"/><stop stop-opacity="1" stop-color="rgb(77.580261%, 14.541626%, 99.952698%)" offset="0.984375"/><stop stop-opacity="1" stop-color="rgb(77.908325%, 14.204407%, 99.971008%)" offset="0.992188"/><stop stop-opacity="1" stop-color="rgb(39.477539%, 7.095337%, 50.553894%)" offset="0.996094"/><stop stop-opacity="1" stop-color="rgb(0.88501%, 0.154114%, 1.12915%)" offset="1"/></linearGradient></defs><g clip-path="url(#3d31838563)"><g clip-path="url(#e66bb76043)"><path fill="url(#d20ed1a0b6)" d="M 94.710938 76.535156 L 94.710938 729.035156 L 747.210938 729.035156 L 747.210938 76.535156 Z M 94.710938 76.535156 " fill-rule="nonzero"/></g></g><path fill="#ffffff" d="M 527.972656 468.511719 C 524.53125 468.511719 521.804688 465.78125 521.804688 462.339844 L 521.804688 457.953125 C 521.804688 442.054688 510.53125 428.171875 494.871094 425.089844 C 494.753906 425.089844 494.515625 424.96875 494.398438 424.96875 L 438.875 409.074219 C 435.671875 408.125 433.773438 404.683594 434.605469 401.480469 C 435.554688 398.277344 438.996094 396.378906 442.199219 397.210938 L 497.484375 412.988281 C 518.71875 417.378906 534.023438 436.121094 534.023438 457.832031 L 534.023438 462.222656 C 534.140625 465.78125 531.414062 468.511719 527.972656 468.511719 Z M 527.972656 468.511719 " fill-opacity="1" fill-rule="nonzero"/><path fill="#ffffff" d="M 313.953125 468.511719 C 310.511719 468.511719 307.785156 465.78125 307.785156 462.339844 L 307.785156 457.953125 C 307.785156 436.242188 323.085938 417.496094 344.324219 413.105469 L 399.609375 397.328125 C 402.8125 396.378906 406.25 398.277344 407.199219 401.597656 C 408.148438 404.800781 406.25 408.242188 402.929688 409.191406 L 347.40625 425.089844 C 347.289062 425.089844 347.050781 425.207031 346.933594 425.207031 C 331.273438 428.292969 320.003906 442.171875 320.003906 458.070312 L 320.003906 462.460938 C 320.121094 465.78125 317.273438 468.511719 313.953125 468.511719 Z M 313.953125 468.511719 " fill-opacity="1" fill-rule="nonzero"/><path fill="#ffffff" d="M 420.960938 419.75 C 413.015625 419.75 405.421875 416.664062 399.84375 410.972656 C 394.152344 405.277344 391.066406 397.800781 391.066406 389.855469 L 391.066406 363.753906 C 391.066406 360.3125 393.792969 357.585938 397.234375 357.585938 C 400.675781 357.585938 403.40625 360.3125 403.40625 363.753906 L 403.40625 389.855469 C 403.40625 394.597656 405.183594 398.988281 408.625 402.3125 C 411.945312 405.632812 416.335938 407.53125 421.082031 407.53125 C 430.808594 407.53125 438.757812 399.582031 438.757812 389.855469 L 438.757812 363.753906 C 438.757812 360.3125 441.488281 357.585938 444.925781 357.585938 C 448.367188 357.585938 451.097656 360.3125 451.097656 363.753906 L 451.097656 389.855469 C 450.859375 406.34375 437.453125 419.75 420.960938 419.75 Z M 420.960938 419.75 " fill-opacity="1" fill-rule="nonzero"/><path fill="#ffffff" d="M 420.960938 376.210938 C 391.304688 376.210938 367.21875 352.128906 367.21875 322.46875 L 367.21875 283.792969 C 367.21875 281.894531 368.167969 279.996094 369.710938 278.929688 C 370.1875 278.574219 382.761719 269.199219 401.625 264.457031 C 419.183594 260.066406 445.757812 259 472.214844 278.929688 C 473.753906 280.117188 474.703125 281.894531 474.703125 283.792969 L 474.703125 322.46875 C 474.703125 352.128906 450.621094 376.210938 420.960938 376.210938 Z M 379.558594 287.113281 L 379.558594 322.46875 C 379.558594 345.367188 398.183594 363.871094 420.960938 363.871094 C 443.742188 363.871094 462.367188 345.246094 462.367188 322.46875 L 462.367188 286.996094 C 425.707031 261.488281 389.167969 281.066406 379.558594 287.113281 Z M 379.558594 287.113281 " fill-opacity="1" fill-rule="nonzero"/><path fill="#ffffff" d="M 516.109375 435.886719 C 512.667969 435.886719 509.941406 433.15625 509.941406 429.714844 L 509.941406 307.640625 C 509.941406 283.910156 500.6875 261.488281 483.839844 244.761719 C 466.992188 227.914062 444.691406 218.660156 420.960938 218.660156 C 371.847656 218.660156 331.984375 258.640625 331.984375 307.640625 L 331.984375 429.714844 C 331.984375 433.15625 329.257812 435.886719 325.816406 435.886719 C 322.375 435.886719 319.648438 433.15625 319.648438 429.714844 L 319.648438 307.640625 C 319.648438 251.761719 365.085938 206.324219 420.960938 206.324219 C 448.011719 206.324219 473.398438 216.882812 492.617188 235.984375 C 511.71875 255.082031 522.277344 280.589844 522.277344 307.640625 L 522.277344 429.714844 C 522.277344 433.15625 519.550781 435.886719 516.109375 435.886719 Z M 516.109375 435.886719 " fill-opacity="1" fill-rule="nonzero"/><path fill="#ffffff" d="M 420.960938 599.246094 C 420.605469 599.246094 420.25 599.246094 419.894531 599.128906 L 289.039062 575.164062 C 286.074219 574.570312 284.054688 572.078125 284.054688 569.113281 L 284.054688 458.070312 C 284.054688 456.289062 284.886719 454.511719 286.308594 453.324219 C 287.734375 452.136719 289.511719 451.664062 291.292969 452.019531 L 422.148438 475.984375 C 425.113281 476.578125 427.132812 479.070312 427.132812 482.035156 L 427.132812 593.078125 C 427.132812 594.859375 426.300781 596.636719 424.878906 597.824219 C 423.808594 598.652344 422.386719 599.246094 420.960938 599.246094 Z M 296.277344 564.011719 L 414.792969 585.722656 L 414.792969 487.136719 L 296.277344 465.425781 C 296.277344 465.425781 296.277344 564.011719 296.277344 564.011719 Z M 296.277344 564.011719 " fill-opacity="1" fill-rule="nonzero"/><path fill="#ffffff" d="M 420.960938 599.246094 C 419.539062 599.246094 418.117188 598.773438 417.046875 597.824219 C 415.625 596.636719 414.792969 594.976562 414.792969 593.078125 L 414.792969 482.035156 C 414.792969 479.070312 416.929688 476.578125 419.777344 475.984375 L 550.632812 452.019531 C 552.410156 451.664062 554.308594 452.136719 555.613281 453.324219 C 557.039062 454.511719 557.867188 456.171875 557.867188 458.070312 L 557.867188 569.113281 C 557.867188 572.078125 555.734375 574.570312 552.886719 575.164062 L 422.03125 599.128906 C 421.675781 599.128906 421.320312 599.246094 420.960938 599.246094 Z M 427.132812 487.136719 L 427.132812 585.722656 L 545.648438 564.011719 L 545.648438 465.425781 Z M 551.820312 569.113281 Z M 551.820312 569.113281 " fill-opacity="1" fill-rule="nonzero"/><path fill="#ffffff" d="M 362.238281 553.929688 C 361.40625 553.929688 360.457031 553.691406 359.746094 553.335938 L 333.527344 541.472656 C 330.5625 540.167969 329.136719 536.605469 330.324219 533.640625 L 343.136719 501.371094 C 343.730469 499.828125 345.035156 498.523438 346.578125 497.933594 C 348.121094 497.339844 349.898438 497.339844 351.441406 498.050781 L 377.660156 509.914062 C 380.625 511.21875 382.050781 514.777344 380.863281 517.742188 L 368.050781 550.011719 C 367.457031 551.554688 366.152344 552.859375 364.609375 553.453125 C 363.78125 553.691406 362.949219 553.929688 362.238281 553.929688 Z M 343.96875 532.691406 L 358.914062 539.453125 L 367.21875 518.574219 L 352.273438 511.8125 Z M 343.96875 532.691406 " fill-opacity="1" fill-rule="nonzero"/><path fill="#ffffff" d="M 479.6875 553.929688 C 478.855469 553.929688 478.144531 553.808594 477.433594 553.453125 C 475.890625 552.859375 474.585938 551.554688 473.992188 550.011719 L 461.179688 517.742188 C 459.992188 514.660156 461.417969 511.21875 464.382812 509.914062 L 490.601562 498.050781 C 492.144531 497.339844 493.925781 497.339844 495.464844 497.933594 C 497.007812 498.523438 498.3125 499.828125 498.90625 501.371094 L 511.71875 533.640625 C 512.90625 536.726562 511.480469 540.167969 508.515625 541.472656 L 482.296875 553.335938 C 481.46875 553.691406 480.636719 553.929688 479.6875 553.929688 Z M 474.703125 518.574219 L 483.007812 539.453125 L 497.957031 532.691406 L 489.652344 511.8125 Z M 474.703125 518.574219 " fill-opacity="1" fill-rule="nonzero"/></svg>