<svg xmlns="http://www.w3.org/2000/svg" xmlns:xlink="http://www.w3.org/1999/xlink" width="1080" zoomAndPan="magnify" viewBox="0 0 810 809.999993" height="1080" preserveAspectRatio="xMidYMid meet" version="1.0"><defs><clipPath id="73f4f934a2"><path d="M 160.085938 136.167969 L 700.835938 136.167969 L 700.835938 676.917969 L 160.085938 676.917969 Z M 160.085938 136.167969 " clip-rule="nonzero"/></clipPath><clipPath id="82ee7ffedf"><path d="M 622.183594 676.917969 L 238.742188 676.917969 C 195.480469 676.917969 160.085938 641.523438 160.085938 598.265625 L 160.085938 214.824219 C 160.085938 171.5625 195.480469 136.167969 238.742188 136.167969 L 622.183594 136.167969 C 665.441406 136.167969 700.835938 171.5625 700.835938 214.824219 L 700.835938 598.265625 C 700.835938 641.523438 665.441406 676.917969 622.183594 676.917969 Z M 622.183594 676.917969 " clip-rule="nonzero"/></clipPath><linearGradient x1="275" gradientTransform="matrix(0.983182, 0, 0, -0.983182, 160.086626, 676.919262)" y1="549.999964" x2="275" gradientUnits="userSpaceOnUse" y2="-0.000006301" id="07b82236d8"><stop stop-opacity="1" stop-color="rgb(36.499023%, 56.898499%, 97.599792%)" offset="0"/><stop stop-opacity="1" stop-color="rgb(36.662292%, 56.729126%, 97.608948%)" offset="0.0078125"/><stop stop-opacity="1" stop-color="rgb(36.990356%, 56.391907%, 97.627258%)" offset="0.015625"/><stop stop-opacity="1" stop-color="rgb(37.316895%, 56.054688%, 97.645569%)" offset="0.0234375"/><stop stop-opacity="1" stop-color="rgb(37.644958%, 55.717468%, 97.665405%)" offset="0.03125"/><stop stop-opacity="1" stop-color="rgb(37.971497%, 55.380249%, 97.683716%)" offset="0.0390625"/><stop stop-opacity="1" stop-color="rgb(38.299561%, 55.04303%, 97.702026%)" offset="0.046875"/><stop stop-opacity="1" stop-color="rgb(38.626099%, 54.704285%, 97.720337%)" offset="0.0546875"/><stop stop-opacity="1" stop-color="rgb(38.954163%, 54.367065%, 97.740173%)" offset="0.0625"/><stop stop-opacity="1" stop-color="rgb(39.280701%, 54.029846%, 97.758484%)" offset="0.0703125"/><stop stop-opacity="1" stop-color="rgb(39.608765%, 53.692627%, 97.776794%)" offset="0.078125"/><stop stop-opacity="1" stop-color="rgb(39.935303%, 53.355408%, 97.796631%)" offset="0.0859375"/><stop stop-opacity="1" stop-color="rgb(40.263367%, 53.016663%, 97.814941%)" offset="0.09375"/><stop stop-opacity="1" stop-color="rgb(40.589905%, 52.679443%, 97.833252%)" offset="0.101562"/><stop stop-opacity="1" stop-color="rgb(40.917969%, 52.342224%, 97.851562%)" offset="0.109375"/><stop stop-opacity="1" stop-color="rgb(41.246033%, 52.005005%, 97.871399%)" offset="0.117187"/><stop stop-opacity="1" stop-color="rgb(41.572571%, 51.667786%, 97.889709%)" offset="0.125"/><stop stop-opacity="1" stop-color="rgb(41.900635%, 51.330566%, 97.90802%)" offset="0.132813"/><stop stop-opacity="1" stop-color="rgb(42.227173%, 50.991821%, 97.927856%)" offset="0.140625"/><stop stop-opacity="1" stop-color="rgb(42.555237%, 50.654602%, 97.946167%)" offset="0.148438"/><stop stop-opacity="1" stop-color="rgb(42.881775%, 50.317383%, 97.964478%)" offset="0.15625"/><stop stop-opacity="1" stop-color="rgb(43.209839%, 49.980164%, 97.982788%)" offset="0.164063"/><stop stop-opacity="1" stop-color="rgb(43.536377%, 49.642944%, 98.002625%)" offset="0.171875"/><stop stop-opacity="1" stop-color="rgb(43.864441%, 49.304199%, 98.020935%)" offset="0.179688"/><stop stop-opacity="1" stop-color="rgb(44.190979%, 48.96698%, 98.039246%)" offset="0.1875"/><stop stop-opacity="1" stop-color="rgb(44.519043%, 48.629761%, 98.059082%)" offset="0.195313"/><stop stop-opacity="1" stop-color="rgb(44.845581%, 48.292542%, 98.077393%)" offset="0.203125"/><stop stop-opacity="1" stop-color="rgb(45.173645%, 47.955322%, 98.095703%)" offset="0.210938"/><stop stop-opacity="1" stop-color="rgb(45.500183%, 47.618103%, 98.114014%)" offset="0.21875"/><stop stop-opacity="1" stop-color="rgb(45.828247%, 47.279358%, 98.13385%)" offset="0.226563"/><stop stop-opacity="1" stop-color="rgb(46.154785%, 46.942139%, 98.152161%)" offset="0.234375"/><stop stop-opacity="1" stop-color="rgb(46.482849%, 46.604919%, 98.170471%)" offset="0.242188"/><stop stop-opacity="1" stop-color="rgb(46.810913%, 46.2677%, 98.190308%)" offset="0.25"/><stop stop-opacity="1" stop-color="rgb(47.137451%, 45.930481%, 98.208618%)" offset="0.257812"/><stop stop-opacity="1" stop-color="rgb(47.465515%, 45.591736%, 98.226929%)" offset="0.265625"/><stop stop-opacity="1" stop-color="rgb(47.792053%, 45.254517%, 98.245239%)" offset="0.273438"/><stop stop-opacity="1" stop-color="rgb(48.120117%, 44.917297%, 98.265076%)" offset="0.28125"/><stop stop-opacity="1" stop-color="rgb(48.446655%, 44.580078%, 98.283386%)" offset="0.289063"/><stop stop-opacity="1" stop-color="rgb(48.774719%, 44.242859%, 98.301697%)" offset="0.296875"/><stop stop-opacity="1" stop-color="rgb(49.101257%, 43.904114%, 98.321533%)" offset="0.304688"/><stop stop-opacity="1" stop-color="rgb(49.429321%, 43.566895%, 98.339844%)" offset="0.3125"/><stop stop-opacity="1" stop-color="rgb(49.755859%, 43.229675%, 98.358154%)" offset="0.320312"/><stop stop-opacity="1" stop-color="rgb(50.083923%, 42.892456%, 98.376465%)" offset="0.328125"/><stop stop-opacity="1" stop-color="rgb(50.410461%, 42.555237%, 98.396301%)" offset="0.335938"/><stop stop-opacity="1" stop-color="rgb(50.738525%, 42.218018%, 98.414612%)" offset="0.34375"/><stop stop-opacity="1" stop-color="rgb(51.065063%, 41.879272%, 98.432922%)" offset="0.351562"/><stop stop-opacity="1" stop-color="rgb(51.393127%, 41.542053%, 98.452759%)" offset="0.359375"/><stop stop-opacity="1" stop-color="rgb(51.719666%, 41.204834%, 98.471069%)" offset="0.367188"/><stop stop-opacity="1" stop-color="rgb(52.047729%, 40.867615%, 98.48938%)" offset="0.375"/><stop stop-opacity="1" stop-color="rgb(52.374268%, 40.530396%, 98.50769%)" offset="0.382812"/><stop stop-opacity="1" stop-color="rgb(52.702332%, 40.19165%, 98.527527%)" offset="0.390625"/><stop stop-opacity="1" stop-color="rgb(53.030396%, 39.854431%, 98.545837%)" offset="0.398438"/><stop stop-opacity="1" stop-color="rgb(53.356934%, 39.517212%, 98.564148%)" offset="0.40625"/><stop stop-opacity="1" stop-color="rgb(53.684998%, 39.179993%, 98.583984%)" offset="0.414062"/><stop stop-opacity="1" stop-color="rgb(54.011536%, 38.842773%, 98.602295%)" offset="0.421875"/><stop stop-opacity="1" stop-color="rgb(54.3396%, 38.505554%, 98.620605%)" offset="0.429688"/><stop stop-opacity="1" stop-color="rgb(54.666138%, 38.166809%, 98.638916%)" offset="0.4375"/><stop stop-opacity="1" stop-color="rgb(54.994202%, 37.82959%, 98.658752%)" offset="0.445312"/><stop stop-opacity="1" stop-color="rgb(55.32074%, 37.492371%, 98.677063%)" offset="0.453125"/><stop stop-opacity="1" stop-color="rgb(55.648804%, 37.155151%, 98.695374%)" offset="0.460938"/><stop stop-opacity="1" stop-color="rgb(55.975342%, 36.817932%, 98.71521%)" offset="0.46875"/><stop stop-opacity="1" stop-color="rgb(56.303406%, 36.479187%, 98.733521%)" offset="0.476562"/><stop stop-opacity="1" stop-color="rgb(56.629944%, 36.141968%, 98.751831%)" offset="0.484375"/><stop stop-opacity="1" stop-color="rgb(56.958008%, 35.804749%, 98.770142%)" offset="0.492187"/><stop stop-opacity="1" stop-color="rgb(57.284546%, 35.467529%, 98.789978%)" offset="0.5"/><stop stop-opacity="1" stop-color="rgb(57.61261%, 35.13031%, 98.808289%)" offset="0.507812"/><stop stop-opacity="1" stop-color="rgb(57.939148%, 34.793091%, 98.826599%)" offset="0.515625"/><stop stop-opacity="1" stop-color="rgb(58.267212%, 34.454346%, 98.846436%)" offset="0.523437"/><stop stop-opacity="1" stop-color="rgb(58.595276%, 34.117126%, 98.864746%)" offset="0.53125"/><stop stop-opacity="1" stop-color="rgb(58.921814%, 33.779907%, 98.883057%)" offset="0.539062"/><stop stop-opacity="1" stop-color="rgb(59.249878%, 33.442688%, 98.902893%)" offset="0.546875"/><stop stop-opacity="1" stop-color="rgb(59.576416%, 33.105469%, 98.921204%)" offset="0.554688"/><stop stop-opacity="1" stop-color="rgb(59.90448%, 32.766724%, 98.939514%)" offset="0.5625"/><stop stop-opacity="1" stop-color="rgb(60.231018%, 32.429504%, 98.957825%)" offset="0.570312"/><stop stop-opacity="1" stop-color="rgb(60.559082%, 32.092285%, 98.977661%)" offset="0.578125"/><stop stop-opacity="1" stop-color="rgb(60.88562%, 31.755066%, 98.995972%)" offset="0.585938"/><stop stop-opacity="1" stop-color="rgb(61.213684%, 31.417847%, 99.014282%)" offset="0.59375"/><stop stop-opacity="1" stop-color="rgb(61.540222%, 31.079102%, 99.034119%)" offset="0.601562"/><stop stop-opacity="1" stop-color="rgb(61.868286%, 30.741882%, 99.052429%)" offset="0.609375"/><stop stop-opacity="1" stop-color="rgb(62.194824%, 30.404663%, 99.07074%)" offset="0.617187"/><stop stop-opacity="1" stop-color="rgb(62.522888%, 30.067444%, 99.08905%)" offset="0.625"/><stop stop-opacity="1" stop-color="rgb(62.849426%, 29.730225%, 99.108887%)" offset="0.632812"/><stop stop-opacity="1" stop-color="rgb(63.17749%, 29.393005%, 99.127197%)" offset="0.640625"/><stop stop-opacity="1" stop-color="rgb(63.504028%, 29.05426%, 99.145508%)" offset="0.648438"/><stop stop-opacity="1" stop-color="rgb(63.832092%, 28.717041%, 99.165344%)" offset="0.65625"/><stop stop-opacity="1" stop-color="rgb(64.15863%, 28.379822%, 99.183655%)" offset="0.664062"/><stop stop-opacity="1" stop-color="rgb(64.486694%, 28.042603%, 99.201965%)" offset="0.671875"/><stop stop-opacity="1" stop-color="rgb(64.814758%, 27.705383%, 99.220276%)" offset="0.679688"/><stop stop-opacity="1" stop-color="rgb(65.141296%, 27.366638%, 99.240112%)" offset="0.6875"/><stop stop-opacity="1" stop-color="rgb(65.46936%, 27.029419%, 99.258423%)" offset="0.695312"/><stop stop-opacity="1" stop-color="rgb(65.795898%, 26.6922%, 99.276733%)" offset="0.703125"/><stop stop-opacity="1" stop-color="rgb(66.123962%, 26.35498%, 99.29657%)" offset="0.710937"/><stop stop-opacity="1" stop-color="rgb(66.4505%, 26.017761%, 99.31488%)" offset="0.71875"/><stop stop-opacity="1" stop-color="rgb(66.778564%, 25.680542%, 99.333191%)" offset="0.726562"/><stop stop-opacity="1" stop-color="rgb(67.105103%, 25.341797%, 99.351501%)" offset="0.734375"/><stop stop-opacity="1" stop-color="rgb(67.433167%, 25.004578%, 99.371338%)" offset="0.742187"/><stop stop-opacity="1" stop-color="rgb(67.759705%, 24.667358%, 99.389648%)" offset="0.75"/><stop stop-opacity="1" stop-color="rgb(68.087769%, 24.330139%, 99.407959%)" offset="0.757812"/><stop stop-opacity="1" stop-color="rgb(68.414307%, 23.99292%, 99.427795%)" offset="0.765625"/><stop stop-opacity="1" stop-color="rgb(68.742371%, 23.654175%, 99.446106%)" offset="0.773438"/><stop stop-opacity="1" stop-color="rgb(69.068909%, 23.316956%, 99.464417%)" offset="0.78125"/><stop stop-opacity="1" stop-color="rgb(69.396973%, 22.979736%, 99.482727%)" offset="0.789062"/><stop stop-opacity="1" stop-color="rgb(69.723511%, 22.642517%, 99.502563%)" offset="0.796875"/><stop stop-opacity="1" stop-color="rgb(70.051575%, 22.305298%, 99.520874%)" offset="0.804688"/><stop stop-opacity="1" stop-color="rgb(70.379639%, 21.968079%, 99.539185%)" offset="0.8125"/><stop stop-opacity="1" stop-color="rgb(70.706177%, 21.629333%, 99.559021%)" offset="0.820312"/><stop stop-opacity="1" stop-color="rgb(71.034241%, 21.292114%, 99.577332%)" offset="0.828125"/><stop stop-opacity="1" stop-color="rgb(71.360779%, 20.954895%, 99.595642%)" offset="0.835938"/><stop stop-opacity="1" stop-color="rgb(71.688843%, 20.617676%, 99.613953%)" offset="0.84375"/><stop stop-opacity="1" stop-color="rgb(72.015381%, 20.280457%, 99.633789%)" offset="0.851562"/><stop stop-opacity="1" stop-color="rgb(72.343445%, 19.941711%, 99.6521%)" offset="0.859375"/><stop stop-opacity="1" stop-color="rgb(72.669983%, 19.604492%, 99.67041%)" offset="0.867188"/><stop stop-opacity="1" stop-color="rgb(72.998047%, 19.267273%, 99.690247%)" offset="0.875"/><stop stop-opacity="1" stop-color="rgb(73.324585%, 18.930054%, 99.708557%)" offset="0.882812"/><stop stop-opacity="1" stop-color="rgb(73.652649%, 18.592834%, 99.726868%)" offset="0.890625"/><stop stop-opacity="1" stop-color="rgb(73.979187%, 18.255615%, 99.745178%)" offset="0.898438"/><stop stop-opacity="1" stop-color="rgb(74.307251%, 17.91687%, 99.765015%)" offset="0.90625"/><stop stop-opacity="1" stop-color="rgb(74.633789%, 17.579651%, 99.783325%)" offset="0.914062"/><stop stop-opacity="1" stop-color="rgb(74.961853%, 17.242432%, 99.801636%)" offset="0.921875"/><stop stop-opacity="1" stop-color="rgb(75.288391%, 16.905212%, 99.821472%)" offset="0.929688"/><stop stop-opacity="1" stop-color="rgb(75.616455%, 16.567993%, 99.839783%)" offset="0.9375"/><stop stop-opacity="1" stop-color="rgb(75.944519%, 16.229248%, 99.858093%)" offset="0.945312"/><stop stop-opacity="1" stop-color="rgb(76.271057%, 15.892029%, 99.876404%)" offset="0.953125"/><stop stop-opacity="1" stop-color="rgb(76.599121%, 15.55481%, 99.89624%)" offset="0.960937"/><stop stop-opacity="1" stop-color="rgb(76.925659%, 15.21759%, 99.914551%)" offset="0.96875"/><stop stop-opacity="1" stop-color="rgb(77.253723%, 14.880371%, 99.932861%)" offset="0.976562"/><stop stop-opacity="1" stop-color="rgb(77.580261%, 14.541626%, 99.952698%)" offset="0.984375"/><stop stop-opacity="1" stop-color="rgb(77.908325%, 14.204407%, 99.971008%)" offset="0.992188"/><stop stop-opacity="1" stop-color="rgb(78.234863%, 13.867188%, 99.989319%)" offset="1"/></linearGradient></defs><g clip-path="url(#73f4f934a2)"><g clip-path="url(#82ee7ffedf)"><path fill="url(#07b82236d8)" d="M 160.085938 676.917969 L 160.085938 136.167969 L 700.835938 136.167969 L 700.835938 676.917969 Z M 160.085938 676.917969 " fill-rule="nonzero"/></g></g><path fill="#ffffff" d="M 584.625 487.65625 L 528.089844 549.105469 L 306.875 549.105469 L 306.875 465.632812 C 319.753906 451.96875 331.457031 446.363281 346.695312 446.363281 C 354.757812 446.363281 378.15625 451.769531 400.867188 457.078125 C 423.285156 462.289062 446.390625 467.601562 460.742188 469.371094 C 467.132812 470.84375 478.636719 477.824219 478.636719 486.28125 C 478.636719 495.523438 471.066406 503.09375 461.824219 503.09375 L 362.03125 503.09375 C 358.589844 503.09375 355.839844 505.84375 355.839844 509.285156 C 355.839844 512.726562 358.589844 515.480469 362.03125 515.480469 L 511.179688 515.480469 C 512.558594 515.480469 513.933594 514.988281 515.015625 514.203125 L 562.996094 476.546875 C 562.996094 476.546875 563.09375 476.546875 563.09375 476.449219 C 566.140625 473.890625 570.074219 472.8125 574.007812 473.300781 C 577.9375 473.792969 581.378906 475.859375 583.738281 479.101562 C 583.9375 479.398438 584.132812 479.59375 584.429688 479.890625 C 586.492188 481.953125 586.589844 485.394531 584.625 487.65625 Z M 584.625 487.65625 " fill-opacity="1" fill-rule="nonzero"/><path fill="#ffffff" d="M 294.488281 446.363281 L 294.488281 556.773438 L 245.425781 556.773438 L 245.425781 446.363281 L 263.714844 446.363281 L 263.714844 516.855469 C 263.714844 520.296875 266.46875 523.050781 269.90625 523.050781 C 273.347656 523.050781 276.101562 520.296875 276.101562 516.855469 L 276.101562 446.363281 Z M 294.488281 446.363281 " fill-opacity="1" fill-rule="nonzero"/><path fill="#ffffff" d="M 582.460938 416.964844 C 574.792969 423.554688 566.042969 428.566406 556.703125 431.8125 C 559.257812 428.175781 561.617188 424.046875 563.683594 419.425781 C 564.765625 417.164062 565.648438 414.804688 566.632812 412.445312 C 566.828125 412.445312 566.925781 412.542969 567.125 412.542969 C 567.320312 412.542969 567.417969 412.640625 567.617188 412.640625 C 568.105469 412.738281 568.695312 412.835938 569.1875 413.035156 C 569.976562 413.230469 570.761719 413.425781 571.546875 413.625 C 572.335938 413.820312 573.023438 414.015625 573.808594 414.214844 C 574.300781 414.3125 574.792969 414.507812 575.285156 414.605469 C 575.777344 414.703125 576.265625 414.902344 576.757812 415.097656 C 577.546875 415.394531 578.332031 415.589844 579.117188 415.882812 L 579.21875 415.882812 C 580.003906 416.179688 580.789062 416.375 581.578125 416.671875 C 581.871094 416.769531 582.167969 416.867188 582.460938 416.964844 Z M 582.460938 416.964844 " fill-opacity="1" fill-rule="nonzero"/><path fill="#ffffff" d="M 502.527344 431.910156 C 493.1875 428.664062 484.4375 423.652344 476.769531 417.0625 C 477.164062 416.964844 477.554688 416.769531 477.949219 416.671875 C 478.539062 416.472656 479.128906 416.277344 479.71875 416.082031 C 480.015625 415.984375 480.308594 415.882812 480.605469 415.785156 C 481.292969 415.589844 481.882812 415.394531 482.570312 415.195312 C 483.0625 415 483.554688 414.902344 484.046875 414.804688 C 486.011719 414.214844 488.074219 413.625 490.238281 413.132812 C 490.730469 413.035156 491.320312 412.835938 491.8125 412.738281 C 492.007812 412.738281 492.105469 412.640625 492.304688 412.640625 C 492.5 412.640625 492.597656 412.542969 492.796875 412.542969 C 493.679688 415 494.664062 417.359375 495.746094 419.621094 C 497.613281 424.144531 499.972656 428.273438 502.527344 431.910156 Z M 502.527344 431.910156 " fill-opacity="1" fill-rule="nonzero"/><path fill="#ffffff" d="M 523.46875 408.609375 L 523.46875 434.859375 C 517.472656 431.910156 511.574219 424.734375 506.757812 414.3125 C 506.167969 412.933594 505.578125 411.65625 504.988281 410.183594 C 505.183594 410.183594 505.378906 410.082031 505.675781 410.082031 C 505.96875 410.082031 506.265625 409.984375 506.558594 409.984375 C 507.148438 409.886719 507.738281 409.886719 508.328125 409.789062 C 509.507812 409.691406 510.589844 409.492188 511.769531 409.394531 C 514.71875 409.101562 517.667969 408.902344 520.621094 408.707031 C 521.011719 408.707031 521.40625 408.707031 521.699219 408.609375 L 521.800781 408.609375 C 522.191406 408.609375 522.683594 408.609375 523.078125 408.609375 C 523.175781 408.609375 523.273438 408.609375 523.46875 408.609375 Z M 523.46875 408.609375 " fill-opacity="1" fill-rule="nonzero"/><path fill="#ffffff" d="M 554.246094 410.183594 C 553.652344 411.558594 553.0625 412.933594 552.472656 414.3125 C 547.65625 424.832031 541.855469 431.910156 535.761719 434.859375 L 535.761719 408.609375 C 535.859375 408.609375 535.957031 408.609375 536.054688 408.609375 C 536.546875 408.609375 536.941406 408.609375 537.433594 408.707031 C 537.824219 408.707031 538.21875 408.707031 538.613281 408.804688 C 539.398438 408.804688 540.085938 408.902344 540.871094 408.902344 C 541.265625 408.902344 541.660156 408.902344 542.054688 409.003906 C 542.742188 409.003906 543.332031 409.101562 544.019531 409.101562 C 544.609375 409.101562 545.101562 409.199219 545.691406 409.199219 C 545.691406 409.199219 545.789062 409.199219 545.886719 409.199219 C 546.476562 409.199219 546.96875 409.296875 547.460938 409.296875 C 547.558594 409.296875 547.558594 409.296875 547.65625 409.296875 C 548.34375 409.394531 549.132812 409.394531 549.820312 409.492188 C 550.804688 409.59375 551.785156 409.691406 552.769531 409.886719 C 553.0625 409.886719 553.359375 409.984375 553.65625 409.984375 C 553.753906 410.082031 554.046875 410.183594 554.246094 410.183594 Z M 554.246094 410.183594 " fill-opacity="1" fill-rule="nonzero"/><path fill="#ffffff" d="M 563.585938 360.925781 C 563.191406 374.296875 561.324219 386.980469 558.175781 398.285156 C 557.882812 398.285156 557.683594 398.1875 557.488281 398.1875 C 555.914062 397.992188 554.34375 397.792969 552.769531 397.597656 C 551.984375 397.5 551.292969 397.402344 550.507812 397.300781 C 549.722656 397.203125 549.035156 397.105469 548.246094 397.105469 C 546.773438 397.007812 545.199219 396.8125 543.625 396.710938 C 543.035156 396.710938 542.347656 396.613281 541.757812 396.613281 C 541.5625 396.613281 541.363281 396.613281 541.070312 396.613281 C 540.578125 396.613281 540.085938 396.515625 539.496094 396.515625 C 538.90625 396.515625 538.316406 396.417969 537.726562 396.417969 C 537.136719 396.417969 536.644531 396.417969 536.054688 396.320312 C 535.957031 396.320312 535.859375 396.320312 535.660156 396.320312 L 535.660156 361.023438 Z M 563.585938 360.925781 " fill-opacity="1" fill-rule="nonzero"/><path fill="#ffffff" d="M 563.585938 348.535156 L 535.761719 348.535156 L 535.761719 313.242188 C 543.429688 313.042969 551 312.355469 558.175781 311.175781 C 561.324219 322.480469 563.191406 335.164062 563.585938 348.535156 Z M 563.585938 348.535156 " fill-opacity="1" fill-rule="nonzero"/><path fill="#ffffff" d="M 523.46875 313.242188 L 523.46875 348.535156 L 495.648438 348.535156 C 496.039062 335.164062 497.90625 322.480469 501.054688 311.175781 C 501.9375 311.273438 502.824219 311.46875 503.808594 311.570312 C 504.691406 311.667969 505.675781 311.765625 506.558594 311.960938 C 507.347656 312.058594 508.035156 312.160156 508.820312 312.257812 C 509.609375 312.355469 510.296875 312.453125 511.082031 312.453125 C 512.558594 312.550781 514.128906 312.75 515.703125 312.847656 C 516.292969 312.847656 516.980469 312.945312 517.570312 312.945312 C 517.769531 312.945312 518.0625 312.945312 518.257812 312.945312 C 518.75 312.945312 519.242188 313.042969 519.734375 313.042969 C 520.324219 313.042969 520.914062 313.140625 521.503906 313.140625 C 522.09375 313.140625 522.683594 313.140625 523.273438 313.242188 C 523.175781 313.242188 523.273438 313.242188 523.46875 313.242188 Z M 523.46875 313.242188 " fill-opacity="1" fill-rule="nonzero"/><path fill="#ffffff" d="M 523.46875 360.925781 L 523.46875 396.222656 C 523.371094 396.222656 523.273438 396.222656 523.078125 396.222656 C 522.585938 396.222656 521.996094 396.222656 521.503906 396.320312 C 521.40625 396.320312 521.40625 396.320312 521.308594 396.320312 C 521.210938 396.320312 521.210938 396.320312 521.109375 396.320312 C 520.621094 396.320312 520.128906 396.320312 519.636719 396.417969 L 519.539062 396.417969 C 519.046875 396.417969 518.554688 396.515625 518.0625 396.515625 C 517.867188 396.515625 517.570312 396.515625 517.375 396.515625 C 516.785156 396.515625 516.097656 396.613281 515.507812 396.613281 C 513.933594 396.710938 512.457031 396.8125 510.886719 397.007812 C 510.097656 397.105469 509.410156 397.105469 508.625 397.203125 C 507.839844 397.300781 507.148438 397.402344 506.363281 397.5 C 505.476562 397.597656 504.59375 397.695312 503.808594 397.792969 C 503.117188 397.890625 502.429688 397.992188 501.644531 398.089844 C 501.347656 398.089844 501.152344 398.1875 500.957031 398.1875 C 497.808594 386.980469 496.039062 374.199219 495.546875 360.828125 L 523.46875 360.828125 Z M 523.46875 360.925781 " fill-opacity="1" fill-rule="nonzero"/><path fill="#ffffff" d="M 488.863281 400.546875 C 488.371094 400.644531 487.878906 400.742188 487.386719 400.941406 C 487.191406 400.941406 486.996094 401.039062 486.796875 401.039062 C 486.207031 401.136719 485.714844 401.332031 485.125 401.433594 C 483.75 401.824219 482.472656 402.121094 481.09375 402.511719 C 479.914062 402.808594 478.835938 403.203125 477.65625 403.59375 C 476.964844 403.792969 476.375 403.988281 475.6875 404.28125 C 475.097656 404.480469 474.507812 404.675781 473.820312 404.871094 C 473.230469 405.070312 472.640625 405.265625 472.050781 405.5625 C 471.753906 405.660156 471.460938 405.757812 471.164062 405.855469 C 471.066406 405.855469 471.066406 405.855469 470.96875 405.953125 C 470.574219 406.152344 470.183594 406.25 469.789062 406.445312 C 469.199219 406.644531 468.609375 406.9375 468.019531 407.132812 C 467.722656 407.234375 467.429688 407.332031 467.234375 407.527344 C 456.121094 394.351562 449.4375 378.128906 448.160156 360.925781 L 483.257812 360.925781 C 483.652344 374.984375 485.617188 388.453125 488.863281 400.546875 Z M 488.863281 400.546875 " fill-opacity="1" fill-rule="nonzero"/><path fill="#ffffff" d="M 611.070312 360.925781 C 609.792969 378.128906 603.109375 394.351562 592 407.527344 C 591.703125 407.429688 591.410156 407.332031 591.210938 407.132812 C 590.621094 406.839844 590.03125 406.644531 589.441406 406.445312 C 588.949219 406.25 588.457031 406.050781 587.96875 405.855469 C 587.277344 405.5625 586.492188 405.265625 585.804688 405.070312 C 585.214844 404.871094 584.527344 404.675781 583.9375 404.382812 C 583.347656 404.183594 582.65625 403.988281 582.066406 403.792969 C 581.28125 403.496094 580.398438 403.300781 579.609375 403.003906 C 578.921875 402.808594 578.234375 402.613281 577.546875 402.414062 C 577.152344 402.316406 576.855469 402.21875 576.464844 402.121094 C 574.988281 401.726562 573.515625 401.332031 571.941406 400.941406 C 571.648438 400.84375 571.449219 400.84375 571.15625 400.742188 C 570.859375 400.644531 570.664062 400.644531 570.367188 400.546875 C 573.613281 388.453125 575.480469 374.984375 575.972656 360.925781 Z M 611.070312 360.925781 " fill-opacity="1" fill-rule="nonzero"/><path fill="#ffffff" d="M 580.199219 293.28125 C 579.21875 293.675781 578.136719 293.96875 577.152344 294.265625 C 576.167969 294.558594 575.085938 294.855469 574.007812 295.148438 C 573.710938 295.25 573.417969 295.347656 573.121094 295.445312 L 572.136719 295.738281 C 571.746094 295.839844 571.253906 295.9375 570.859375 296.035156 C 570.269531 296.132812 569.777344 296.328125 569.1875 296.429688 C 568.894531 296.527344 568.5 296.625 568.207031 296.722656 C 567.8125 296.820312 567.417969 296.917969 567.125 297.019531 C 567.027344 297.019531 566.828125 297.117188 566.730469 297.117188 C 565.847656 294.660156 564.863281 292.296875 563.78125 290.039062 C 561.617188 285.417969 559.257812 281.1875 556.800781 277.648438 C 564.566406 280.402344 571.941406 284.335938 578.726562 289.449219 C 579.117188 290.726562 579.707031 292.003906 580.199219 293.28125 Z M 580.199219 293.28125 " fill-opacity="1" fill-rule="nonzero"/><path fill="#ffffff" d="M 554.246094 299.277344 C 554.046875 299.277344 553.949219 299.277344 553.753906 299.378906 C 553.164062 299.476562 552.574219 299.574219 551.984375 299.574219 C 551.394531 299.671875 550.804688 299.671875 550.214844 299.769531 C 549.625 299.867188 549.035156 299.867188 548.34375 299.96875 C 547.164062 300.066406 545.886719 300.164062 544.707031 300.261719 C 542.839844 300.457031 540.972656 300.558594 539.101562 300.65625 C 538.511719 300.65625 537.824219 300.753906 537.234375 300.753906 C 536.742188 300.753906 536.351562 300.753906 535.859375 300.851562 L 535.859375 274.601562 C 541.855469 277.550781 547.753906 284.726562 552.574219 295.148438 C 553.0625 296.527344 553.652344 297.902344 554.246094 299.277344 Z M 554.246094 299.277344 " fill-opacity="1" fill-rule="nonzero"/><path fill="#ffffff" d="M 523.46875 274.601562 L 523.46875 300.851562 C 523.371094 300.851562 523.273438 300.851562 523.175781 300.851562 C 522.683594 300.851562 522.289062 300.851562 521.800781 300.753906 C 521.40625 300.753906 521.011719 300.753906 520.71875 300.65625 C 515.800781 300.457031 510.984375 299.96875 506.363281 299.378906 C 505.96875 299.277344 505.578125 299.277344 505.183594 299.179688 C 505.773438 297.804688 506.363281 296.429688 506.953125 295.050781 C 511.574219 284.726562 517.375 277.550781 523.46875 274.601562 Z M 523.46875 274.601562 " fill-opacity="1" fill-rule="nonzero"/><path fill="#ffffff" d="M 502.527344 277.648438 C 499.972656 281.285156 497.613281 285.417969 495.546875 290.039062 C 494.566406 292.296875 493.582031 294.65625 492.597656 297.019531 C 492.304688 296.917969 492.007812 296.917969 491.617188 296.820312 C 491.125 296.722656 490.535156 296.625 490.042969 296.429688 C 488.960938 296.132812 487.976562 295.9375 486.894531 295.640625 C 486.40625 295.542969 485.914062 295.347656 485.421875 295.25 C 485.125 295.148438 484.929688 295.148438 484.734375 295.050781 C 484.242188 294.953125 483.652344 294.757812 483.160156 294.558594 C 481.390625 294.066406 479.71875 293.476562 478.144531 292.886719 C 477.652344 292.691406 477.164062 292.59375 476.769531 292.398438 C 484.4375 285.90625 493.1875 280.894531 502.527344 277.648438 Z M 502.527344 277.648438 " fill-opacity="1" fill-rule="nonzero"/><path fill="#ffffff" d="M 488.863281 308.914062 C 485.617188 321.007812 483.75 334.476562 483.257812 348.535156 L 448.160156 348.535156 C 449.4375 331.332031 456.121094 315.109375 467.234375 301.933594 C 467.527344 302.03125 467.824219 302.128906 468.019531 302.328125 C 468.609375 302.621094 469.199219 302.820312 469.789062 303.015625 C 470.183594 303.210938 470.574219 303.308594 470.96875 303.507812 C 471.261719 303.605469 471.65625 303.800781 471.953125 303.898438 C 476.769531 305.667969 481.785156 307.242188 487.191406 308.519531 C 487.78125 308.71875 488.371094 308.816406 488.863281 308.914062 Z M 488.863281 308.914062 " fill-opacity="1" fill-rule="nonzero"/><path fill="#ffffff" d="M 615.496094 271.0625 C 615.496094 276.566406 608.023438 293.378906 600.75 307.929688 C 598.585938 303.507812 596.324219 298.886719 594.257812 294.460938 C 594.160156 294.363281 594.160156 294.167969 594.0625 294.066406 C 592.390625 290.429688 590.917969 286.890625 589.640625 283.746094 C 589.539062 283.546875 589.441406 283.351562 589.441406 283.15625 C 587.378906 277.847656 586 273.519531 586 271.160156 C 586 263 592.589844 256.414062 600.75 256.414062 C 608.910156 256.3125 615.496094 262.902344 615.496094 271.0625 Z M 615.496094 271.0625 " fill-opacity="1" fill-rule="nonzero"/><path fill="#ffffff" d="M 611.070312 348.535156 L 575.972656 348.535156 C 575.578125 334.476562 573.613281 320.910156 570.367188 308.914062 C 575.578125 307.734375 580.59375 306.257812 585.3125 304.589844 C 589.539062 313.535156 593.769531 321.402344 595.242188 324.253906 C 596.324219 326.21875 598.390625 327.496094 600.648438 327.496094 C 602.617188 327.496094 604.484375 326.613281 605.566406 325.039062 C 608.613281 332.511719 610.480469 340.472656 611.070312 348.535156 Z M 611.070312 348.535156 " fill-opacity="1" fill-rule="nonzero"/></svg>