<svg xmlns="http://www.w3.org/2000/svg" xmlns:xlink="http://www.w3.org/1999/xlink" width="1080" zoomAndPan="magnify" viewBox="0 0 810 809.999993" height="1080" preserveAspectRatio="xMidYMid meet" version="1.0"><defs><clipPath id="5c657b0d3e"><path d="M 108.105469 109 L 756.105469 109 L 756.105469 469 L 108.105469 469 Z M 108.105469 109 " clip-rule="nonzero"/></clipPath><clipPath id="087d9c74e6"><path d="M 278 352 L 610.953125 352 L 610.953125 700.507812 L 278 700.507812 Z M 278 352 " clip-rule="nonzero"/></clipPath></defs><g clip-path="url(#5c657b0d3e)"><path fill="#8554d3" d="M 749.890625 109.113281 L 114.324219 109.113281 C 110.90625 109.113281 108.105469 111.910156 108.105469 115.328125 L 108.105469 462.214844 C 108.105469 465.636719 110.90625 468.429688 114.324219 468.429688 L 749.890625 468.429688 C 753.308594 468.429688 756.105469 465.636719 756.105469 462.214844 L 756.105469 115.328125 C 756.105469 111.910156 753.308594 109.113281 749.890625 109.113281 " fill-opacity="1" fill-rule="nonzero"/></g><path fill="#ffc04d" d="M 217.546875 246.402344 C 197.039062 246.402344 180.414062 229.789062 180.414062 209.292969 C 180.414062 188.800781 197.039062 172.183594 217.546875 172.183594 C 238.050781 172.183594 254.675781 188.800781 254.675781 209.292969 C 254.675781 229.789062 238.050781 246.402344 217.546875 246.402344 Z M 217.546875 140.972656 C 179.792969 140.972656 149.183594 171.5625 149.183594 209.292969 C 149.183594 247.027344 179.792969 277.613281 217.546875 277.613281 C 255.296875 277.613281 285.90625 247.027344 285.90625 209.292969 C 285.90625 171.5625 255.296875 140.972656 217.546875 140.972656 " fill-opacity="1" fill-rule="nonzero"/><path fill="#ffc04d" d="M 591.089844 193.6875 L 271.972656 193.6875 C 267.703125 193.6875 264.207031 197.179688 264.207031 201.445312 L 264.207031 217.140625 C 264.207031 221.410156 267.703125 224.898438 271.972656 224.898438 L 591.089844 224.898438 C 595.363281 224.898438 598.855469 221.410156 598.855469 217.140625 L 598.855469 201.445312 C 598.855469 197.179688 595.363281 193.6875 591.089844 193.6875 " fill-opacity="1" fill-rule="nonzero"/><path fill="#ffc04d" d="M 454.085938 193.6875 L 435.285156 193.6875 C 431.867188 193.6875 429.070312 196.480469 429.070312 199.902344 L 429.070312 295.230469 C 429.070312 298.648438 431.867188 301.445312 435.285156 301.445312 L 454.085938 301.445312 C 457.503906 301.445312 460.304688 298.648438 460.304688 295.230469 L 460.304688 199.902344 C 460.304688 196.480469 457.503906 193.6875 454.085938 193.6875 " fill-opacity="1" fill-rule="nonzero"/><path fill="#ffc04d" d="M 391.964844 193.6875 L 373.167969 193.6875 C 369.746094 193.6875 366.953125 196.480469 366.953125 199.902344 L 366.953125 250.941406 C 366.953125 254.363281 369.746094 257.160156 373.167969 257.160156 L 391.964844 257.160156 C 395.382812 257.160156 398.183594 254.363281 398.183594 250.941406 L 398.183594 199.902344 C 398.183594 196.480469 395.382812 193.6875 391.964844 193.6875 " fill-opacity="1" fill-rule="nonzero"/><path fill="#ffc04d" d="M 511.019531 193.6875 L 492.222656 193.6875 C 488.804688 193.6875 486.007812 196.480469 486.007812 199.902344 L 486.007812 264.273438 C 486.007812 267.695312 488.804688 270.488281 492.222656 270.488281 L 511.019531 270.488281 C 514.441406 270.488281 517.238281 267.695312 517.238281 264.273438 L 517.238281 199.902344 C 517.238281 196.480469 514.441406 193.6875 511.019531 193.6875 " fill-opacity="1" fill-rule="nonzero"/><path fill="#ffffff" d="M 201.285156 385.8125 L 150.421875 385.8125 C 148.996094 385.8125 147.835938 386.972656 147.835938 388.402344 C 147.835938 389.828125 148.996094 390.988281 150.421875 390.988281 L 201.285156 390.988281 C 202.714844 390.988281 203.878906 389.828125 203.878906 388.402344 C 203.878906 386.972656 202.714844 385.8125 201.285156 385.8125 " fill-opacity="1" fill-rule="nonzero"/><path fill="#ffffff" d="M 322.421875 385.8125 L 241.199219 385.8125 C 239.765625 385.8125 238.609375 386.972656 238.609375 388.402344 C 238.609375 389.828125 239.765625 390.988281 241.199219 390.988281 L 322.421875 390.988281 C 323.855469 390.988281 325.015625 389.828125 325.015625 388.402344 C 325.015625 386.972656 323.855469 385.8125 322.421875 385.8125 " fill-opacity="1" fill-rule="nonzero"/><path fill="#ffffff" d="M 274.636719 416.570312 L 150.421875 416.570312 C 148.996094 416.570312 147.835938 417.726562 147.835938 419.15625 C 147.835938 420.585938 148.996094 421.746094 150.421875 421.746094 L 274.636719 421.746094 C 276.070312 421.746094 277.230469 420.585938 277.230469 419.15625 C 277.230469 417.726562 276.070312 416.570312 274.636719 416.570312 " fill-opacity="1" fill-rule="nonzero"/><path fill="#ffffff" d="M 382.566406 382.6875 C 381.136719 382.6875 379.976562 383.84375 379.976562 385.269531 L 379.976562 390.445312 C 379.976562 391.878906 381.136719 393.039062 382.566406 393.039062 C 383.996094 393.039062 385.15625 391.878906 385.15625 390.445312 L 385.15625 385.269531 C 385.15625 383.84375 383.996094 382.6875 382.566406 382.6875 " fill-opacity="1" fill-rule="nonzero"/><path fill="#ffffff" d="M 382.566406 422.035156 C 381.136719 422.035156 379.976562 423.191406 379.976562 424.625 L 379.976562 429.804688 C 379.976562 431.230469 381.136719 432.390625 382.566406 432.390625 C 383.996094 432.390625 385.15625 431.230469 385.15625 429.804688 L 385.15625 424.625 C 385.15625 423.191406 383.996094 422.035156 382.566406 422.035156 " fill-opacity="1" fill-rule="nonzero"/><path fill="#ffffff" d="M 382.566406 363.007812 C 381.136719 363.007812 379.976562 364.164062 379.976562 365.59375 L 379.976562 370.777344 C 379.976562 372.203125 381.136719 373.359375 382.566406 373.359375 C 383.996094 373.359375 385.15625 372.203125 385.15625 370.777344 L 385.15625 365.59375 C 385.15625 364.164062 383.996094 363.007812 382.566406 363.007812 " fill-opacity="1" fill-rule="nonzero"/><path fill="#ffffff" d="M 382.566406 402.355469 C 381.136719 402.355469 379.976562 403.519531 379.976562 404.949219 L 379.976562 410.128906 C 379.976562 411.554688 381.136719 412.714844 382.566406 412.714844 C 383.996094 412.714844 385.15625 411.554688 385.15625 410.128906 L 385.15625 404.949219 C 385.15625 403.519531 383.996094 402.355469 382.566406 402.355469 " fill-opacity="1" fill-rule="nonzero"/><path fill="#ffffff" d="M 382.566406 343.328125 C 381.136719 343.328125 379.976562 344.492188 379.976562 345.917969 L 379.976562 351.097656 C 379.976562 352.527344 381.136719 353.683594 382.566406 353.683594 C 383.996094 353.683594 385.15625 352.527344 385.15625 351.097656 L 385.15625 345.917969 C 385.15625 344.492188 383.996094 343.328125 382.566406 343.328125 " fill-opacity="1" fill-rule="nonzero"/><path fill="#ffffff" d="M 382.566406 264.628906 C 381.136719 264.628906 379.976562 265.785156 379.976562 267.210938 L 379.976562 272.394531 C 379.976562 273.820312 381.136719 274.984375 382.566406 274.984375 C 383.996094 274.984375 385.15625 273.820312 385.15625 272.394531 L 385.15625 267.210938 C 385.15625 265.785156 383.996094 264.628906 382.566406 264.628906 " fill-opacity="1" fill-rule="nonzero"/><path fill="#ffffff" d="M 382.566406 323.65625 C 381.136719 323.65625 379.976562 324.816406 379.976562 326.242188 L 379.976562 331.421875 C 379.976562 332.851562 381.136719 334.007812 382.566406 334.007812 C 383.996094 334.007812 385.15625 332.851562 385.15625 331.421875 L 385.15625 326.242188 C 385.15625 324.816406 383.996094 323.65625 382.566406 323.65625 " fill-opacity="1" fill-rule="nonzero"/><path fill="#ffffff" d="M 382.566406 284.304688 C 381.136719 284.304688 379.976562 285.460938 379.976562 286.890625 L 379.976562 292.070312 C 379.976562 293.496094 381.136719 294.65625 382.566406 294.65625 C 383.996094 294.65625 385.15625 293.496094 385.15625 292.070312 L 385.15625 286.890625 C 385.15625 285.460938 383.996094 284.304688 382.566406 284.304688 " fill-opacity="1" fill-rule="nonzero"/><path fill="#ffffff" d="M 382.566406 303.980469 C 381.136719 303.980469 379.976562 305.140625 379.976562 306.566406 L 379.976562 311.746094 C 379.976562 313.171875 381.136719 314.332031 382.566406 314.332031 C 383.996094 314.332031 385.15625 313.171875 385.15625 311.746094 L 385.15625 306.566406 C 385.15625 305.140625 383.996094 303.980469 382.566406 303.980469 " fill-opacity="1" fill-rule="nonzero"/><path fill="#ffffff" d="M 501.625 378.242188 C 500.191406 378.242188 499.03125 379.40625 499.03125 380.832031 L 499.03125 386.015625 C 499.03125 387.441406 500.191406 388.601562 501.625 388.601562 C 503.050781 388.601562 504.210938 387.441406 504.210938 386.015625 L 504.210938 380.832031 C 504.210938 379.40625 503.050781 378.242188 501.625 378.242188 " fill-opacity="1" fill-rule="nonzero"/><path fill="#ffffff" d="M 501.625 397.917969 C 500.191406 397.917969 499.03125 399.078125 499.03125 400.511719 L 499.03125 405.691406 C 499.03125 407.117188 500.191406 408.277344 501.625 408.277344 C 503.050781 408.277344 504.210938 407.117188 504.210938 405.691406 L 504.210938 400.511719 C 504.210938 399.078125 503.050781 397.917969 501.625 397.917969 " fill-opacity="1" fill-rule="nonzero"/><path fill="#ffffff" d="M 501.625 417.597656 C 500.191406 417.597656 499.03125 418.753906 499.03125 420.1875 L 499.03125 425.363281 C 499.03125 426.792969 500.191406 427.953125 501.625 427.953125 C 503.050781 427.953125 504.210938 426.792969 504.210938 425.363281 L 504.210938 420.1875 C 504.210938 418.753906 503.050781 417.597656 501.625 417.597656 " fill-opacity="1" fill-rule="nonzero"/><path fill="#ffffff" d="M 501.625 279.867188 C 500.191406 279.867188 499.03125 281.023438 499.03125 282.453125 L 499.03125 287.632812 C 499.03125 289.066406 500.191406 290.21875 501.625 290.21875 C 503.050781 290.21875 504.210938 289.066406 504.210938 287.632812 L 504.210938 282.453125 C 504.210938 281.023438 503.050781 279.867188 501.625 279.867188 " fill-opacity="1" fill-rule="nonzero"/><path fill="#ffffff" d="M 501.625 299.542969 C 500.191406 299.542969 499.03125 300.703125 499.03125 302.128906 L 499.03125 307.308594 C 499.03125 308.734375 500.191406 309.898438 501.625 309.898438 C 503.050781 309.898438 504.210938 308.734375 504.210938 307.308594 L 504.210938 302.128906 C 504.210938 300.703125 503.050781 299.542969 501.625 299.542969 " fill-opacity="1" fill-rule="nonzero"/><path fill="#ffffff" d="M 501.625 358.570312 C 500.191406 358.570312 499.03125 359.730469 499.03125 361.15625 L 499.03125 366.339844 C 499.03125 367.765625 500.191406 368.925781 501.625 368.925781 C 503.050781 368.925781 504.210938 367.765625 504.210938 366.339844 L 504.210938 361.15625 C 504.210938 359.730469 503.050781 358.570312 501.625 358.570312 " fill-opacity="1" fill-rule="nonzero"/><path fill="#ffffff" d="M 501.625 319.21875 C 500.191406 319.21875 499.03125 320.378906 499.03125 321.804688 L 499.03125 326.984375 C 499.03125 328.414062 500.191406 329.570312 501.625 329.570312 C 503.050781 329.570312 504.210938 328.414062 504.210938 326.984375 L 504.210938 321.804688 C 504.210938 320.378906 503.050781 319.21875 501.625 319.21875 " fill-opacity="1" fill-rule="nonzero"/><path fill="#ffffff" d="M 501.625 338.894531 C 500.191406 338.894531 499.03125 340.054688 499.03125 341.480469 L 499.03125 346.664062 C 499.03125 348.089844 500.191406 349.246094 501.625 349.246094 C 503.050781 349.246094 504.210938 348.089844 504.210938 346.664062 L 504.210938 341.480469 C 504.210938 340.054688 503.050781 338.894531 501.625 338.894531 " fill-opacity="1" fill-rule="nonzero"/><path fill="#ffffff" d="M 444.6875 383.585938 C 443.253906 383.585938 442.101562 384.746094 442.101562 386.171875 L 442.101562 391.351562 C 442.101562 392.78125 443.253906 393.9375 444.6875 393.9375 C 446.121094 393.9375 447.277344 392.78125 447.277344 391.351562 L 447.277344 386.171875 C 447.277344 384.746094 446.121094 383.585938 444.6875 383.585938 " fill-opacity="1" fill-rule="nonzero"/><path fill="#ffffff" d="M 444.6875 403.261719 C 443.253906 403.261719 442.101562 404.421875 442.101562 405.847656 L 442.101562 411.027344 C 442.101562 412.457031 443.253906 413.613281 444.6875 413.613281 C 446.121094 413.613281 447.277344 412.457031 447.277344 411.027344 L 447.277344 405.847656 C 447.277344 404.421875 446.121094 403.261719 444.6875 403.261719 " fill-opacity="1" fill-rule="nonzero"/><path fill="#ffffff" d="M 444.6875 344.234375 C 443.253906 344.234375 442.101562 345.390625 442.101562 346.820312 L 442.101562 352 C 442.101562 353.425781 443.253906 354.585938 444.6875 354.585938 C 446.121094 354.585938 447.277344 353.425781 447.277344 352 L 447.277344 346.820312 C 447.277344 345.390625 446.121094 344.234375 444.6875 344.234375 " fill-opacity="1" fill-rule="nonzero"/><path fill="#ffffff" d="M 444.6875 304.878906 C 443.253906 304.878906 442.101562 306.039062 442.101562 307.472656 L 442.101562 312.648438 C 442.101562 314.074219 443.253906 315.238281 444.6875 315.238281 C 446.121094 315.238281 447.277344 314.074219 447.277344 312.648438 L 447.277344 307.472656 C 447.277344 306.039062 446.121094 304.878906 444.6875 304.878906 " fill-opacity="1" fill-rule="nonzero"/><path fill="#ffffff" d="M 444.6875 324.558594 C 443.253906 324.558594 442.101562 325.714844 442.101562 327.144531 L 442.101562 332.324219 C 442.101562 333.753906 443.253906 334.910156 444.6875 334.910156 C 446.121094 334.910156 447.277344 333.753906 447.277344 332.324219 L 447.277344 327.144531 C 447.277344 325.714844 446.121094 324.558594 444.6875 324.558594 " fill-opacity="1" fill-rule="nonzero"/><path fill="#ffffff" d="M 444.6875 363.910156 C 443.253906 363.910156 442.101562 365.070312 442.101562 366.496094 L 442.101562 371.675781 C 442.101562 373.101562 443.253906 374.265625 444.6875 374.265625 C 446.121094 374.265625 447.277344 373.101562 447.277344 371.675781 L 447.277344 366.496094 C 447.277344 365.070312 446.121094 363.910156 444.6875 363.910156 " fill-opacity="1" fill-rule="nonzero"/><path fill="#ffffff" d="M 698.214844 298.714844 L 601.113281 298.714844 C 597.761719 298.714844 595.011719 301.457031 595.011719 304.808594 L 595.011719 345.042969 C 595.011719 348.390625 597.761719 351.140625 601.113281 351.140625 L 698.214844 351.140625 C 701.574219 351.140625 704.316406 348.390625 704.316406 345.042969 L 704.316406 304.808594 C 704.316406 301.457031 701.574219 298.714844 698.214844 298.714844 " fill-opacity="1" fill-rule="nonzero"/><path fill="#ffc04d" d="M 714.046875 331.964844 L 638.707031 331.964844 C 637.59375 331.964844 636.535156 331.484375 635.800781 330.644531 L 620.199219 312.839844 C 619.464844 312 618.40625 311.519531 617.292969 311.519531 L 585.289062 311.519531 C 583.152344 311.519531 581.417969 313.25 581.417969 315.382812 L 581.417969 426.332031 C 581.417969 428.46875 583.152344 430.199219 585.289062 430.199219 L 714.046875 430.199219 C 716.179688 430.199219 717.910156 428.46875 717.910156 426.332031 L 717.910156 335.824219 C 717.910156 333.695312 716.179688 331.964844 714.046875 331.964844 " fill-opacity="1" fill-rule="nonzero"/><path fill="#ffffff" d="M 717.910156 163.269531 L 627.636719 163.269531 C 626.207031 163.269531 625.042969 164.429688 625.042969 165.855469 C 625.042969 167.289062 626.207031 168.445312 627.636719 168.445312 L 717.910156 168.445312 C 719.34375 168.445312 720.5 167.289062 720.5 165.855469 C 720.5 164.429688 719.34375 163.269531 717.910156 163.269531 " fill-opacity="1" fill-rule="nonzero"/><path fill="#ffffff" d="M 717.910156 224.777344 L 628.371094 224.777344 C 626.9375 224.777344 625.777344 225.9375 625.777344 227.371094 C 625.777344 228.796875 626.9375 229.960938 628.371094 229.960938 L 717.910156 229.960938 C 719.34375 229.960938 720.5 228.796875 720.5 227.371094 C 720.5 225.9375 719.34375 224.777344 717.910156 224.777344 " fill-opacity="1" fill-rule="nonzero"/><path fill="#ffffff" d="M 633.605469 194.023438 L 628.425781 194.023438 C 626.992188 194.023438 625.832031 195.179688 625.832031 196.613281 C 625.832031 198.039062 626.992188 199.203125 628.425781 199.203125 L 633.605469 199.203125 C 635.035156 199.203125 636.195312 198.039062 636.195312 196.613281 C 636.195312 195.179688 635.035156 194.023438 633.605469 194.023438 " fill-opacity="1" fill-rule="nonzero"/><path fill="#ffffff" d="M 672.980469 194.023438 L 667.796875 194.023438 C 666.367188 194.023438 665.210938 195.179688 665.210938 196.613281 C 665.210938 198.039062 666.367188 199.203125 667.796875 199.203125 L 672.980469 199.203125 C 674.414062 199.203125 675.570312 198.039062 675.570312 196.613281 C 675.570312 195.179688 674.414062 194.023438 672.980469 194.023438 " fill-opacity="1" fill-rule="nonzero"/><path fill="#ffffff" d="M 653.292969 194.023438 L 648.113281 194.023438 C 646.679688 194.023438 645.519531 195.179688 645.519531 196.613281 C 645.519531 198.039062 646.679688 199.203125 648.113281 199.203125 L 653.292969 199.203125 C 654.726562 199.203125 655.882812 198.039062 655.882812 196.613281 C 655.882812 195.179688 654.726562 194.023438 653.292969 194.023438 " fill-opacity="1" fill-rule="nonzero"/><path fill="#ffffff" d="M 692.667969 194.023438 L 687.488281 194.023438 C 686.054688 194.023438 684.898438 195.179688 684.898438 196.613281 C 684.898438 198.039062 686.054688 199.203125 687.488281 199.203125 L 692.667969 199.203125 C 694.097656 199.203125 695.261719 198.039062 695.261719 196.613281 C 695.261719 195.179688 694.097656 194.023438 692.667969 194.023438 " fill-opacity="1" fill-rule="nonzero"/><path fill="#9d76dc" d="M 316.207031 311.519531 L 151.898438 311.519531 C 148.480469 311.519531 145.679688 314.316406 145.679688 317.730469 L 145.679688 349.390625 C 145.679688 352.804688 148.480469 355.601562 151.898438 355.601562 L 316.207031 355.601562 C 319.628906 355.601562 322.421875 352.804688 322.421875 349.390625 L 322.421875 317.730469 C 322.421875 314.316406 319.628906 311.519531 316.207031 311.519531 " fill-opacity="1" fill-rule="nonzero"/><g clip-path="url(#087d9c74e6)"><path fill="#27bcc4" d="M 444.496094 352.234375 L 278.808594 427.648438 C 278.808594 427.648438 278.808594 625.117188 444.496094 700.507812 L 444.585938 700.476562 C 610.269531 625.085938 610.269531 427.648438 610.269531 427.648438 L 444.585938 352.234375 L 444.496094 352.234375 " fill-opacity="1" fill-rule="nonzero"/></g><path fill="#ffffff" d="M 321.449219 451.195312 C 321.449219 451.195312 321.449219 599.738281 444.503906 655.738281 L 444.574219 655.679688 C 567.628906 599.6875 567.628906 451.195312 567.628906 451.195312 L 444.574219 393.648438 L 321.449219 451.195312 " fill-opacity="1" fill-rule="nonzero"/><path fill="#8554d3" d="M 486.542969 503.71875 L 402.484375 503.71875 C 400.378906 503.71875 398.660156 505.4375 398.660156 507.542969 L 398.660156 588.554688 C 398.660156 590.65625 400.378906 592.375 402.484375 592.375 L 486.542969 592.375 C 488.648438 592.375 490.371094 590.65625 490.371094 588.554688 L 490.371094 507.542969 C 490.371094 505.4375 488.648438 503.71875 486.542969 503.71875 " fill-opacity="1" fill-rule="nonzero"/><path fill="#8554d3" d="M 468.167969 506.527344 C 468.167969 519.558594 457.554688 530.164062 444.515625 530.164062 C 431.472656 530.164062 420.863281 519.558594 420.863281 506.527344 L 420.863281 483.035156 C 420.863281 470.003906 431.472656 459.398438 444.515625 459.398438 C 457.554688 459.398438 468.167969 470.003906 468.167969 483.035156 Z M 444.515625 447.289062 C 424.789062 447.289062 408.746094 463.324219 408.746094 483.035156 L 408.746094 506.527344 C 408.746094 526.234375 424.789062 542.273438 444.515625 542.273438 C 464.234375 542.273438 480.28125 526.234375 480.28125 506.527344 L 480.28125 483.035156 C 480.28125 463.324219 464.234375 447.289062 444.515625 447.289062 " fill-opacity="1" fill-rule="nonzero"/><path fill="#ffffff" d="M 444.515625 523.867188 C 438.328125 523.867188 433.3125 528.875 433.3125 535.0625 C 433.3125 541.246094 438.328125 546.253906 444.515625 546.253906 C 450.699219 546.253906 455.71875 541.246094 455.71875 535.0625 C 455.71875 528.875 450.699219 523.867188 444.515625 523.867188 " fill-opacity="1" fill-rule="nonzero"/><path fill="#ffffff" d="M 446.199219 539.105469 C 445.585938 537.628906 443.496094 537.628906 442.878906 539.105469 L 433.128906 562.433594 C 432.636719 563.617188 433.507812 564.921875 434.792969 564.921875 L 454.289062 564.921875 C 455.574219 564.921875 456.445312 563.617188 455.949219 562.433594 L 446.199219 539.105469 " fill-opacity="1" fill-rule="nonzero"/></svg>